<mxfile host="app.diagrams.net" agent="Mozilla/5.0 (Windows NT 10.0; Win64; x64) AppleWebKit/537.36 (KHTML, like Gecko) Chrome/132.0.0.0 Safari/537.36 OPR/117.0.0.0" version="26.2.14">
  <diagram name="Page-1" id="f_3oM0i7yv1ToYmqykZj">
    <mxGraphModel dx="1382" dy="791" grid="1" gridSize="10" guides="1" tooltips="1" connect="1" arrows="1" fold="1" page="1" pageScale="1" pageWidth="3300" pageHeight="2339" background="#ffffff" math="0" shadow="0">
      <root>
        <mxCell id="0" />
        <mxCell id="1" parent="0" />
        <mxCell id="l9gxagXX-j7azEdDKl_m-1" value="__main__" style="whiteSpace=wrap;html=1;" parent="1" vertex="1">
          <mxGeometry x="546.5" y="70" width="120" height="60" as="geometry" />
        </mxCell>
        <mxCell id="l9gxagXX-j7azEdDKl_m-3" value="" style="rhombus;whiteSpace=wrap;html=1;fillColor=none;" parent="1" vertex="1">
          <mxGeometry x="593" y="130" width="27" height="27" as="geometry" />
        </mxCell>
        <mxCell id="l9gxagXX-j7azEdDKl_m-4" value="" style="endArrow=none;html=1;entryX=0.5;entryY=1;entryDx=0;entryDy=0;" parent="1" target="l9gxagXX-j7azEdDKl_m-3" edge="1">
          <mxGeometry width="50" height="50" relative="1" as="geometry">
            <mxPoint x="606.5" y="270" as="sourcePoint" />
            <mxPoint x="521.5" y="151" as="targetPoint" />
          </mxGeometry>
        </mxCell>
        <mxCell id="l9gxagXX-j7azEdDKl_m-5" value="" style="curved=1;endArrow=classic;html=1;rounded=0;" parent="1" edge="1">
          <mxGeometry width="50" height="50" relative="1" as="geometry">
            <mxPoint x="576.5" y="150" as="sourcePoint" />
            <mxPoint x="636.5" y="150" as="targetPoint" />
            <Array as="points">
              <mxPoint x="586.5" y="170" />
              <mxPoint x="626.5" y="170" />
            </Array>
          </mxGeometry>
        </mxCell>
        <mxCell id="l9gxagXX-j7azEdDKl_m-7" value="clear_screen" style="whiteSpace=wrap;html=1;" parent="1" vertex="1">
          <mxGeometry x="730" y="230" width="120" height="60" as="geometry" />
        </mxCell>
        <mxCell id="l9gxagXX-j7azEdDKl_m-8" value="" style="endArrow=none;html=1;" parent="1" source="l9gxagXX-j7azEdDKl_m-7" target="l9gxagXX-j7azEdDKl_m-83" edge="1">
          <mxGeometry width="50" height="50" relative="1" as="geometry">
            <mxPoint x="520" y="393" as="sourcePoint" />
            <mxPoint x="540" y="353.75" as="targetPoint" />
          </mxGeometry>
        </mxCell>
        <mxCell id="l9gxagXX-j7azEdDKl_m-9" value="centered_question" style="whiteSpace=wrap;html=1;" parent="1" vertex="1">
          <mxGeometry x="823.5" y="440" width="120" height="60" as="geometry" />
        </mxCell>
        <mxCell id="l9gxagXX-j7azEdDKl_m-10" value="" style="endArrow=none;html=1;" parent="1" source="l9gxagXX-j7azEdDKl_m-9" target="l9gxagXX-j7azEdDKl_m-83" edge="1">
          <mxGeometry width="50" height="50" relative="1" as="geometry">
            <mxPoint x="559" y="440" as="sourcePoint" />
            <mxPoint x="660" y="375.3968253968253" as="targetPoint" />
          </mxGeometry>
        </mxCell>
        <mxCell id="l9gxagXX-j7azEdDKl_m-11" value="" style="group;rotation=28;" parent="1" vertex="1" connectable="0">
          <mxGeometry x="711.5" y="349.50000000000006" width="40" height="23" as="geometry" />
        </mxCell>
        <mxCell id="l9gxagXX-j7azEdDKl_m-12" value="" style="outlineConnect=0;fontColor=#232F3E;gradientColor=none;strokeColor=none;dashed=0;verticalLabelPosition=bottom;verticalAlign=top;align=center;html=1;fontSize=12;fontStyle=0;aspect=fixed;pointerEvents=1;shape=mxgraph.aws4.elastic_ip_address;fillColor=#000000;rotation=28;" parent="l9gxagXX-j7azEdDKl_m-11" vertex="1">
          <mxGeometry x="2" y="1" width="40" height="16.92307692307692" as="geometry" />
        </mxCell>
        <mxCell id="l9gxagXX-j7azEdDKl_m-13" value="&lt;font style=&quot;font-size: 10px;&quot;&gt;&quot;Would you like to create a new quiz (y/n): &quot;&lt;/font&gt;" style="text;html=1;align=center;verticalAlign=middle;resizable=0;points=[];autosize=1;strokeColor=none;fillColor=none;" parent="1" vertex="1">
          <mxGeometry x="690" y="314.5" width="220" height="30" as="geometry" />
        </mxCell>
        <mxCell id="l9gxagXX-j7azEdDKl_m-19" value="&lt;font style=&quot;font-size: 10px;&quot;&gt;Input equals &quot;y&quot;&lt;/font&gt;" style="text;html=1;align=center;verticalAlign=middle;resizable=0;points=[];autosize=1;strokeColor=none;fillColor=none;" parent="1" vertex="1">
          <mxGeometry x="745" y="435" width="90" height="30" as="geometry" />
        </mxCell>
        <mxCell id="l9gxagXX-j7azEdDKl_m-20" value="" style="group;rotation=-90;" parent="1" vertex="1" connectable="0">
          <mxGeometry x="606.5" y="200" width="40" height="23" as="geometry" />
        </mxCell>
        <mxCell id="l9gxagXX-j7azEdDKl_m-21" value="" style="outlineConnect=0;fontColor=#232F3E;gradientColor=none;strokeColor=none;dashed=0;verticalLabelPosition=bottom;verticalAlign=top;align=center;html=1;fontSize=12;fontStyle=0;aspect=fixed;pointerEvents=1;shape=mxgraph.aws4.elastic_ip_address;fillColor=#000000;rotation=-90;" parent="l9gxagXX-j7azEdDKl_m-20" vertex="1">
          <mxGeometry x="-4" y="3" width="40" height="16.92307692307692" as="geometry" />
        </mxCell>
        <mxCell id="l9gxagXX-j7azEdDKl_m-22" value="" style="ellipse;whiteSpace=wrap;html=1;aspect=fixed;fillColor=#000000;rotation=-180;" parent="l9gxagXX-j7azEdDKl_m-20" vertex="1">
          <mxGeometry x="8" y="16" width="15.384615384615383" height="15.384615384615383" as="geometry" />
        </mxCell>
        <mxCell id="l9gxagXX-j7azEdDKl_m-23" value="True/False" style="text;html=1;align=center;verticalAlign=middle;resizable=0;points=[];autosize=1;strokeColor=none;fillColor=none;" parent="1" vertex="1">
          <mxGeometry x="620" y="200" width="80" height="30" as="geometry" />
        </mxCell>
        <mxCell id="l9gxagXX-j7azEdDKl_m-38" value="multichoice_question" style="whiteSpace=wrap;html=1;" parent="1" vertex="1">
          <mxGeometry x="580" y="670" width="120" height="60" as="geometry" />
        </mxCell>
        <mxCell id="l9gxagXX-j7azEdDKl_m-39" value="" style="endArrow=none;html=1;entryX=0.5;entryY=1;entryDx=0;entryDy=0;" parent="1" source="l9gxagXX-j7azEdDKl_m-38" target="l9gxagXX-j7azEdDKl_m-84" edge="1">
          <mxGeometry width="50" height="50" relative="1" as="geometry">
            <mxPoint x="770" y="457" as="sourcePoint" />
            <mxPoint x="603.4285714285713" y="380" as="targetPoint" />
          </mxGeometry>
        </mxCell>
        <mxCell id="l9gxagXX-j7azEdDKl_m-43" value="" style="group;rotation=-147;" parent="1" vertex="1" connectable="0">
          <mxGeometry x="750" y="410" width="40" height="23" as="geometry" />
        </mxCell>
        <mxCell id="l9gxagXX-j7azEdDKl_m-44" value="" style="outlineConnect=0;fontColor=#232F3E;gradientColor=none;strokeColor=none;dashed=0;verticalLabelPosition=bottom;verticalAlign=top;align=center;html=1;fontSize=12;fontStyle=0;aspect=fixed;pointerEvents=1;shape=mxgraph.aws4.elastic_ip_address;fillColor=#000000;rotation=-147;" parent="l9gxagXX-j7azEdDKl_m-43" vertex="1">
          <mxGeometry x="-2" y="6" width="40" height="16.92307692307692" as="geometry" />
        </mxCell>
        <mxCell id="l9gxagXX-j7azEdDKl_m-45" value="" style="ellipse;whiteSpace=wrap;html=1;aspect=fixed;fillColor=#000000;rotation=-237;" parent="l9gxagXX-j7azEdDKl_m-43" vertex="1">
          <mxGeometry x="21" y="14" width="15.384615384615383" height="15.384615384615383" as="geometry" />
        </mxCell>
        <mxCell id="l9gxagXX-j7azEdDKl_m-46" value="" style="group;rotation=80;" parent="1" vertex="1" connectable="0">
          <mxGeometry x="600" y="403.00000000000006" width="40" height="23" as="geometry" />
        </mxCell>
        <mxCell id="l9gxagXX-j7azEdDKl_m-47" value="" style="outlineConnect=0;fontColor=#232F3E;gradientColor=none;strokeColor=none;dashed=0;verticalLabelPosition=bottom;verticalAlign=top;align=center;html=1;fontSize=12;fontStyle=0;aspect=fixed;pointerEvents=1;shape=mxgraph.aws4.elastic_ip_address;fillColor=#000000;rotation=80;" parent="l9gxagXX-j7azEdDKl_m-46" vertex="1">
          <mxGeometry x="13" y="88.5" width="40" height="16.92307692307692" as="geometry" />
        </mxCell>
        <mxCell id="l9gxagXX-j7azEdDKl_m-49" value="&lt;font size=&quot;1&quot;&gt;&quot;Enter an amount&lt;/font&gt;&lt;div&gt;&lt;font size=&quot;1&quot;&gt;&amp;nbsp;of questions: &quot;&lt;/font&gt;&lt;/div&gt;" style="text;html=1;align=center;verticalAlign=middle;resizable=0;points=[];autosize=1;strokeColor=none;fillColor=none;" parent="1" vertex="1">
          <mxGeometry x="623.5" y="480" width="100" height="40" as="geometry" />
        </mxCell>
        <mxCell id="l9gxagXX-j7azEdDKl_m-50" value="" style="group;rotation=-99;" parent="1" vertex="1" connectable="0">
          <mxGeometry x="580" y="550" width="40" height="23" as="geometry" />
        </mxCell>
        <mxCell id="l9gxagXX-j7azEdDKl_m-51" value="" style="outlineConnect=0;fontColor=#232F3E;gradientColor=none;strokeColor=none;dashed=0;verticalLabelPosition=bottom;verticalAlign=top;align=center;html=1;fontSize=12;fontStyle=0;aspect=fixed;pointerEvents=1;shape=mxgraph.aws4.elastic_ip_address;fillColor=#000000;rotation=-99;" parent="l9gxagXX-j7azEdDKl_m-50" vertex="1">
          <mxGeometry x="20" y="77.5" width="40" height="16.92307692307692" as="geometry" />
        </mxCell>
        <mxCell id="l9gxagXX-j7azEdDKl_m-55" value="centered_question" style="whiteSpace=wrap;html=1;" parent="1" vertex="1">
          <mxGeometry x="800" y="580" width="120" height="60" as="geometry" />
        </mxCell>
        <mxCell id="l9gxagXX-j7azEdDKl_m-56" value="" style="endArrow=none;html=1;entryX=0.5;entryY=1;entryDx=0;entryDy=0;" parent="1" source="l9gxagXX-j7azEdDKl_m-55" target="l9gxagXX-j7azEdDKl_m-84" edge="1">
          <mxGeometry width="50" height="50" relative="1" as="geometry">
            <mxPoint x="640" y="610" as="sourcePoint" />
            <mxPoint x="630" y="380" as="targetPoint" />
          </mxGeometry>
        </mxCell>
        <mxCell id="l9gxagXX-j7azEdDKl_m-59" value="&lt;font size=&quot;1&quot;&gt;&quot;Enter a math topic&quot;&lt;/font&gt;" style="text;html=1;align=center;verticalAlign=middle;resizable=0;points=[];autosize=1;strokeColor=none;fillColor=none;" parent="1" vertex="1">
          <mxGeometry x="613.5" y="396" width="110" height="30" as="geometry" />
        </mxCell>
        <mxCell id="l9gxagXX-j7azEdDKl_m-62" value="&lt;font size=&quot;1&quot;&gt;user input&lt;/font&gt;" style="text;html=1;align=center;verticalAlign=middle;resizable=0;points=[];autosize=1;strokeColor=none;fillColor=none;" parent="1" vertex="1">
          <mxGeometry x="554" y="620" width="70" height="30" as="geometry" />
        </mxCell>
        <mxCell id="l9gxagXX-j7azEdDKl_m-63" value="" style="group;rotation=-135;" parent="1" vertex="1" connectable="0">
          <mxGeometry x="770" y="543" width="40" height="23" as="geometry" />
        </mxCell>
        <mxCell id="l9gxagXX-j7azEdDKl_m-64" value="" style="outlineConnect=0;fontColor=#232F3E;gradientColor=none;strokeColor=none;dashed=0;verticalLabelPosition=bottom;verticalAlign=top;align=center;html=1;fontSize=12;fontStyle=0;aspect=fixed;pointerEvents=1;shape=mxgraph.aws4.elastic_ip_address;fillColor=#000000;rotation=-135;" parent="l9gxagXX-j7azEdDKl_m-63" vertex="1">
          <mxGeometry x="-3" y="6" width="40" height="16.92307692307692" as="geometry" />
        </mxCell>
        <mxCell id="l9gxagXX-j7azEdDKl_m-65" value="&lt;font size=&quot;1&quot;&gt;user input&lt;/font&gt;" style="text;html=1;align=center;verticalAlign=middle;resizable=0;points=[];autosize=1;strokeColor=none;fillColor=none;" parent="1" vertex="1">
          <mxGeometry x="710" y="543" width="70" height="30" as="geometry" />
        </mxCell>
        <mxCell id="l9gxagXX-j7azEdDKl_m-58" value="" style="outlineConnect=0;fontColor=#232F3E;gradientColor=none;strokeColor=none;dashed=0;verticalLabelPosition=bottom;verticalAlign=top;align=center;html=1;fontSize=12;fontStyle=0;aspect=fixed;pointerEvents=1;shape=mxgraph.aws4.elastic_ip_address;fillColor=#000000;rotation=45;" parent="1" vertex="1">
          <mxGeometry x="690" y="433.0400000000001" width="40" height="16.92307692307692" as="geometry" />
        </mxCell>
        <mxCell id="l9gxagXX-j7azEdDKl_m-66" value="create_quiz" style="whiteSpace=wrap;html=1;" parent="1" vertex="1">
          <mxGeometry x="414" y="600" width="120" height="60" as="geometry" />
        </mxCell>
        <mxCell id="l9gxagXX-j7azEdDKl_m-67" value="" style="endArrow=none;html=1;entryX=0.5;entryY=1;entryDx=0;entryDy=0;" parent="1" source="l9gxagXX-j7azEdDKl_m-66" target="l9gxagXX-j7azEdDKl_m-84" edge="1">
          <mxGeometry width="50" height="50" relative="1" as="geometry">
            <mxPoint x="647" y="680" as="sourcePoint" />
            <mxPoint x="589.4594594594594" y="380" as="targetPoint" />
          </mxGeometry>
        </mxCell>
        <mxCell id="l9gxagXX-j7azEdDKl_m-68" value="" style="outlineConnect=0;fontColor=#232F3E;gradientColor=none;strokeColor=none;dashed=0;verticalLabelPosition=bottom;verticalAlign=top;align=center;html=1;fontSize=12;fontStyle=0;aspect=fixed;pointerEvents=1;shape=mxgraph.aws4.elastic_ip_address;fillColor=#000000;rotation=119;" parent="1" vertex="1">
          <mxGeometry x="540" y="406.04" width="40" height="16.92307692307692" as="geometry" />
        </mxCell>
        <mxCell id="l9gxagXX-j7azEdDKl_m-69" value="&lt;font size=&quot;1&quot;&gt;number&lt;/font&gt;" style="text;html=1;align=center;verticalAlign=middle;resizable=0;points=[];autosize=1;strokeColor=none;fillColor=none;" parent="1" vertex="1">
          <mxGeometry x="510" y="392.96" width="60" height="30" as="geometry" />
        </mxCell>
        <mxCell id="l9gxagXX-j7azEdDKl_m-71" value="&lt;font size=&quot;1&quot;&gt;topic&lt;/font&gt;" style="text;html=1;align=center;verticalAlign=middle;resizable=0;points=[];autosize=1;strokeColor=none;fillColor=none;" parent="1" vertex="1">
          <mxGeometry x="500" y="436.9200000000001" width="40" height="30" as="geometry" />
        </mxCell>
        <mxCell id="l9gxagXX-j7azEdDKl_m-83" value="main" style="whiteSpace=wrap;html=1;" parent="1" vertex="1">
          <mxGeometry x="546.5" y="270" width="120" height="60" as="geometry" />
        </mxCell>
        <mxCell id="l9gxagXX-j7azEdDKl_m-84" value="" style="rhombus;whiteSpace=wrap;html=1;fillColor=none;" parent="1" vertex="1">
          <mxGeometry x="593" y="330" width="27" height="27" as="geometry" />
        </mxCell>
        <mxCell id="l9gxagXX-j7azEdDKl_m-88" value="" style="outlineConnect=0;fontColor=#232F3E;gradientColor=none;strokeColor=none;dashed=0;verticalLabelPosition=bottom;verticalAlign=top;align=center;html=1;fontSize=12;fontStyle=0;aspect=fixed;pointerEvents=1;shape=mxgraph.aws4.elastic_ip_address;fillColor=#000000;rotation=-64;" parent="1" vertex="1">
          <mxGeometry x="460" y="550" width="40" height="16.92307692307692" as="geometry" />
        </mxCell>
        <mxCell id="l9gxagXX-j7azEdDKl_m-89" value="quiz object or False" style="text;html=1;align=center;verticalAlign=middle;resizable=0;points=[];autosize=1;strokeColor=none;fillColor=none;" parent="1" vertex="1">
          <mxGeometry x="470" y="559.92" width="130" height="30" as="geometry" />
        </mxCell>
        <mxCell id="l9gxagXX-j7azEdDKl_m-90" value="" style="outlineConnect=0;fontColor=#232F3E;gradientColor=none;strokeColor=none;dashed=0;verticalLabelPosition=bottom;verticalAlign=top;align=center;html=1;fontSize=12;fontStyle=0;aspect=fixed;pointerEvents=1;shape=mxgraph.aws4.elastic_ip_address;fillColor=#000000;rotation=119;" parent="1" vertex="1">
          <mxGeometry x="520" y="450" width="40" height="16.92307692307692" as="geometry" />
        </mxCell>
        <mxCell id="l9gxagXX-j7azEdDKl_m-91" value="centered_question" style="whiteSpace=wrap;html=1;" parent="1" vertex="1">
          <mxGeometry x="250" y="297" width="120" height="60" as="geometry" />
        </mxCell>
        <mxCell id="l9gxagXX-j7azEdDKl_m-92" value="" style="endArrow=none;html=1;" parent="1" source="l9gxagXX-j7azEdDKl_m-83" target="l9gxagXX-j7azEdDKl_m-91" edge="1">
          <mxGeometry width="50" height="50" relative="1" as="geometry">
            <mxPoint x="534" y="382" as="sourcePoint" />
            <mxPoint x="354" y="272" as="targetPoint" />
          </mxGeometry>
        </mxCell>
        <mxCell id="l9gxagXX-j7azEdDKl_m-94" value="" style="outlineConnect=0;fontColor=#232F3E;gradientColor=none;strokeColor=none;dashed=0;verticalLabelPosition=bottom;verticalAlign=top;align=center;html=1;fontSize=12;fontStyle=0;aspect=fixed;pointerEvents=1;shape=mxgraph.aws4.elastic_ip_address;fillColor=#000000;rotation=-193;" parent="1" vertex="1">
          <mxGeometry x="494" y="280.0800000000001" width="40" height="16.92307692307692" as="geometry" />
        </mxCell>
        <mxCell id="l9gxagXX-j7azEdDKl_m-95" value="&lt;font style=&quot;font-size: 10px;&quot;&gt;&quot;Start quiz?&quot;&lt;/font&gt;" style="text;html=1;align=center;verticalAlign=middle;resizable=0;points=[];autosize=1;strokeColor=none;fillColor=none;" parent="1" vertex="1">
          <mxGeometry x="454" y="260" width="80" height="30" as="geometry" />
        </mxCell>
        <mxCell id="l9gxagXX-j7azEdDKl_m-96" value="" style="group;rotation=-5;" parent="1" vertex="1" connectable="0">
          <mxGeometry x="390" y="330" width="40" height="23" as="geometry" />
        </mxCell>
        <mxCell id="l9gxagXX-j7azEdDKl_m-97" value="" style="outlineConnect=0;fontColor=#232F3E;gradientColor=none;strokeColor=none;dashed=0;verticalLabelPosition=bottom;verticalAlign=top;align=center;html=1;fontSize=12;fontStyle=0;aspect=fixed;pointerEvents=1;shape=mxgraph.aws4.elastic_ip_address;fillColor=#000000;rotation=-5;" parent="l9gxagXX-j7azEdDKl_m-96" vertex="1">
          <mxGeometry y="-1" width="40" height="16.92307692307692" as="geometry" />
        </mxCell>
        <mxCell id="l9gxagXX-j7azEdDKl_m-98" value="" style="ellipse;whiteSpace=wrap;html=1;aspect=fixed;fillColor=#000000;rotation=-95;" parent="l9gxagXX-j7azEdDKl_m-96" vertex="1">
          <mxGeometry x="-1" y="1" width="15.384615384615383" height="15.384615384615383" as="geometry" />
        </mxCell>
        <mxCell id="l9gxagXX-j7azEdDKl_m-99" value="&lt;font size=&quot;1&quot;&gt;input equals &quot;y&quot;&lt;/font&gt;" style="text;html=1;align=center;verticalAlign=middle;resizable=0;points=[];autosize=1;strokeColor=none;fillColor=none;" parent="1" vertex="1">
          <mxGeometry x="369" y="349.5" width="90" height="30" as="geometry" />
        </mxCell>
        <mxCell id="l9gxagXX-j7azEdDKl_m-100" value="display_quiz" style="rounded=0;whiteSpace=wrap;html=1;" parent="1" vertex="1">
          <mxGeometry x="100" y="490.00000000000006" width="120" height="60" as="geometry" />
        </mxCell>
        <mxCell id="l9gxagXX-j7azEdDKl_m-101" value="" style="endArrow=none;html=1;entryX=0.5;entryY=1;entryDx=0;entryDy=0;" parent="1" source="l9gxagXX-j7azEdDKl_m-100" target="l9gxagXX-j7azEdDKl_m-84" edge="1">
          <mxGeometry width="50" height="50" relative="1" as="geometry">
            <mxPoint x="220" y="470" as="sourcePoint" />
            <mxPoint x="617" y="367" as="targetPoint" />
          </mxGeometry>
        </mxCell>
        <mxCell id="l9gxagXX-j7azEdDKl_m-102" value="" style="group;rotation=-205;" parent="1" vertex="1" connectable="0">
          <mxGeometry x="419" y="417" width="40" height="23" as="geometry" />
        </mxCell>
        <mxCell id="l9gxagXX-j7azEdDKl_m-103" value="" style="outlineConnect=0;fontColor=#232F3E;gradientColor=none;strokeColor=none;dashed=0;verticalLabelPosition=bottom;verticalAlign=top;align=center;html=1;fontSize=12;fontStyle=0;aspect=fixed;pointerEvents=1;shape=mxgraph.aws4.elastic_ip_address;fillColor=#000000;rotation=-205;" parent="l9gxagXX-j7azEdDKl_m-102" vertex="1">
          <mxGeometry x="2" y="6" width="40" height="16.92307692307692" as="geometry" />
        </mxCell>
        <mxCell id="l9gxagXX-j7azEdDKl_m-104" value="quiz" style="text;html=1;align=center;verticalAlign=middle;resizable=0;points=[];autosize=1;strokeColor=none;fillColor=none;" parent="1" vertex="1">
          <mxGeometry x="415" y="438" width="50" height="30" as="geometry" />
        </mxCell>
        <mxCell id="l9gxagXX-j7azEdDKl_m-105" value="clear_screen" style="whiteSpace=wrap;html=1;" parent="1" vertex="1">
          <mxGeometry x="250" y="550" width="120" height="60" as="geometry" />
        </mxCell>
        <mxCell id="l9gxagXX-j7azEdDKl_m-106" value="" style="endArrow=none;html=1;rounded=0;" parent="1" source="l9gxagXX-j7azEdDKl_m-100" target="l9gxagXX-j7azEdDKl_m-105" edge="1">
          <mxGeometry width="50" height="50" relative="1" as="geometry">
            <mxPoint x="240" y="560" as="sourcePoint" />
            <mxPoint x="290" y="510" as="targetPoint" />
          </mxGeometry>
        </mxCell>
        <mxCell id="l9gxagXX-j7azEdDKl_m-107" value="get_question_answer()" style="whiteSpace=wrap;html=1;" parent="1" vertex="1">
          <mxGeometry x="110" y="660" width="140" height="40" as="geometry" />
        </mxCell>
        <mxCell id="l9gxagXX-j7azEdDKl_m-108" value="" style="endArrow=none;html=1;rounded=0;" parent="1" source="l9gxagXX-j7azEdDKl_m-100" target="l9gxagXX-j7azEdDKl_m-107" edge="1">
          <mxGeometry width="50" height="50" relative="1" as="geometry">
            <mxPoint x="230" y="554" as="sourcePoint" />
            <mxPoint x="260" y="566" as="targetPoint" />
          </mxGeometry>
        </mxCell>
        <mxCell id="l9gxagXX-j7azEdDKl_m-109" value="" style="group;rotation=-95;" parent="1" vertex="1" connectable="0">
          <mxGeometry x="170" y="620" width="40" height="23" as="geometry" />
        </mxCell>
        <mxCell id="l9gxagXX-j7azEdDKl_m-110" value="" style="outlineConnect=0;fontColor=#232F3E;gradientColor=none;strokeColor=none;dashed=0;verticalLabelPosition=bottom;verticalAlign=top;align=center;html=1;fontSize=12;fontStyle=0;aspect=fixed;pointerEvents=1;shape=mxgraph.aws4.elastic_ip_address;fillColor=#000000;rotation=-95;" parent="l9gxagXX-j7azEdDKl_m-109" vertex="1">
          <mxGeometry x="-4" y="3" width="40" height="16.92307692307692" as="geometry" />
        </mxCell>
        <mxCell id="l9gxagXX-j7azEdDKl_m-111" value="" style="ellipse;whiteSpace=wrap;html=1;aspect=fixed;fillColor=#000000;rotation=-185;" parent="l9gxagXX-j7azEdDKl_m-109" vertex="1">
          <mxGeometry x="9" y="17" width="15.384615384615383" height="15.384615384615383" as="geometry" />
        </mxCell>
        <mxCell id="l9gxagXX-j7azEdDKl_m-114" value="&lt;font style=&quot;font-size: 10px;&quot;&gt;User answer&amp;nbsp;&lt;/font&gt;&lt;div&gt;&lt;font style=&quot;font-size: 10px;&quot;&gt;is correct&lt;/font&gt;&lt;/div&gt;" style="text;html=1;align=center;verticalAlign=middle;resizable=0;points=[];autosize=1;strokeColor=none;fillColor=none;" parent="1" vertex="1">
          <mxGeometry x="190" y="615" width="80" height="40" as="geometry" />
        </mxCell>
      </root>
    </mxGraphModel>
  </diagram>
</mxfile>
